# Blender v3.2.2 OBJ File: 'gizmo_move_axis.blend'
# www.blender.org
o Cube
v 0.136654 -0.481391 -0.136654
v 0.000000 -3.130407 0.515561
v 0.100581 -3.130407 0.505655
v 0.136654 -0.481391 0.136654
v 0.197297 -3.130407 0.476317
v 0.286431 -3.130407 0.428674
v -0.136654 -0.481391 -0.136654
v 0.364557 -3.130407 0.364557
v 0.428674 -3.130407 0.286431
v -0.136654 -0.481391 0.136654
v 0.476317 -3.130407 0.197297
v 0.505655 -3.130407 0.100581
v 0.515561 -3.130407 -0.000000
v 0.505655 -3.130407 -0.100581
v 0.476317 -3.130407 -0.197297
v 0.428674 -3.130407 -0.286430
v 0.364557 -3.130407 -0.364557
v 0.286430 -3.130407 -0.428674
v 0.197297 -3.130407 -0.476317
v 0.100581 -3.130407 -0.505655
v -0.000000 -3.130407 -0.515561
v -0.100581 -3.130407 -0.505655
v -0.197297 -3.130407 -0.476317
v -0.286431 -3.130407 -0.428673
v -0.364557 -3.130407 -0.364557
v -0.428673 -3.130407 -0.286431
v -0.476317 -3.130407 -0.197297
v -0.505655 -3.130407 -0.100581
v -0.515561 -3.130407 0.000000
v -0.505655 -3.130407 0.100581
v -0.476316 -3.130407 0.197297
v -0.428674 -3.130407 0.286430
v -0.364557 -3.130407 0.364557
v -0.286431 -3.130407 0.428674
v -0.197297 -3.130407 0.476317
v -0.100581 -3.130407 0.505655
v 0.000000 -4.555826 0.000000
v 0.136654 -3.130407 0.136654
v -0.136654 -3.130407 0.136654
v -0.136654 -3.130407 -0.136654
v 0.136654 -3.130407 -0.136654
vt 0.875000 0.500000
vt 0.625000 0.750000
vt 0.625000 0.500000
vt 0.377825 1.000000
vt 0.377825 0.750000
vt 0.625000 0.000000
vt 0.377825 0.250000
vt 0.377825 0.000000
vt 0.377825 0.500000
vt 0.625000 0.250000
vt 0.875000 0.750000
vt 0.625000 1.000000
vt 0.250000 0.250000
vt 0.296822 0.485388
vt 0.250000 0.490000
vt 0.341844 0.471731
vt 0.383337 0.449553
vt 0.419706 0.419706
vt 0.449553 0.383337
vt 0.471731 0.341844
vt 0.485388 0.296822
vt 0.490000 0.250000
vt 0.485388 0.203178
vt 0.471731 0.158156
vt 0.449553 0.116663
vt 0.419706 0.080294
vt 0.383337 0.050447
vt 0.341844 0.028269
vt 0.296822 0.014612
vt 0.250000 0.010000
vt 0.203178 0.014612
vt 0.158156 0.028269
vt 0.116663 0.050447
vt 0.080294 0.080294
vt 0.050447 0.116663
vt 0.028269 0.158156
vt 0.014612 0.203178
vt 0.010000 0.250000
vt 0.014612 0.296822
vt 0.028269 0.341844
vt 0.050447 0.383337
vt 0.080294 0.419706
vt 0.116663 0.449553
vt 0.158156 0.471731
vt 0.514612 0.296822
vt 0.528269 0.341844
vt 0.686386 0.313614
vt 0.686386 0.186386
vt 0.813614 0.186386
vt 0.750000 0.010000
vt 0.203178 0.485388
vt 0.658156 0.471731
vt 0.703178 0.485388
vt 0.750000 0.490000
vt 0.796822 0.485388
vt 0.813614 0.313614
vt 0.841844 0.471731
vt 0.883337 0.449553
vt 0.919706 0.419706
vt 0.949553 0.383337
vt 0.971731 0.341844
vt 0.985388 0.296822
vt 0.510000 0.250000
vt 0.514612 0.203178
vt 0.580294 0.419706
vt 0.616663 0.449553
vt 0.550447 0.383337
vt 0.990000 0.250000
vt 0.985388 0.203178
vt 0.971731 0.158156
vt 0.949553 0.116663
vt 0.919706 0.080294
vt 0.883337 0.050447
vt 0.841844 0.028269
vt 0.796822 0.014612
vt 0.703178 0.014612
vt 0.658156 0.028269
vt 0.616663 0.050447
vt 0.580294 0.080294
vt 0.550447 0.116663
vt 0.528269 0.158156
vn 0.0000 1.0000 0.0000
vn 0.0000 0.0000 1.0000
vn -1.0000 0.0000 0.0000
vn 1.0000 0.0000 0.0000
vn 0.0000 0.0000 -1.0000
vn 0.0922 -0.3387 0.9364
vn 0.2731 -0.3387 0.9004
vn 0.4435 -0.3387 0.8298
vn 0.5969 -0.3387 0.7273
vn 0.7273 -0.3387 0.5969
vn 0.8298 -0.3387 0.4435
vn 0.9004 -0.3387 0.2731
vn 0.9364 -0.3387 0.0922
vn 0.9364 -0.3387 -0.0922
vn 0.9004 -0.3387 -0.2731
vn 0.8298 -0.3387 -0.4435
vn 0.7273 -0.3387 -0.5969
vn 0.5969 -0.3387 -0.7273
vn 0.4435 -0.3387 -0.8298
vn 0.2731 -0.3387 -0.9004
vn 0.0922 -0.3387 -0.9364
vn -0.0922 -0.3387 -0.9364
vn -0.2731 -0.3387 -0.9004
vn -0.4435 -0.3387 -0.8298
vn -0.5969 -0.3387 -0.7273
vn -0.7273 -0.3387 -0.5969
vn -0.8298 -0.3387 -0.4435
vn -0.9004 -0.3387 -0.2731
vn -0.9364 -0.3387 -0.0922
vn -0.9364 -0.3387 0.0922
vn -0.9004 -0.3387 0.2731
vn -0.8298 -0.3387 0.4435
vn -0.7273 -0.3387 0.5969
vn -0.5969 -0.3387 0.7273
vn -0.4435 -0.3387 0.8298
vn -0.2731 -0.3387 0.9004
vn -0.0922 -0.3387 0.9364
s off
f 7/1/1 4/2/1 1/3/1
f 4/2/2 39/4/2 38/5/2
f 10/6/3 40/7/3 39/8/3
f 1/3/4 38/5/4 41/9/4
f 7/10/5 41/9/5 40/7/5
f 7/1/1 10/11/1 4/2/1
f 4/2/2 10/12/2 39/4/2
f 10/6/3 7/10/3 40/7/3
f 1/3/4 4/2/4 38/5/4
f 7/10/5 1/3/5 41/9/5
f 37/13/6 3/14/6 2/15/6
f 37/13/7 5/16/7 3/14/7
f 37/13/8 6/17/8 5/16/8
f 37/13/9 8/18/9 6/17/9
f 37/13/10 9/19/10 8/18/10
f 37/13/11 11/20/11 9/19/11
f 37/13/12 12/21/12 11/20/12
f 37/13/13 13/22/13 12/21/13
f 14/23/14 13/22/14 37/13/14
f 15/24/15 14/23/15 37/13/15
f 16/25/16 15/24/16 37/13/16
f 17/26/17 16/25/17 37/13/17
f 18/27/18 17/26/18 37/13/18
f 19/28/19 18/27/19 37/13/19
f 20/29/20 19/28/20 37/13/20
f 21/30/21 20/29/21 37/13/21
f 21/30/22 37/13/22 22/31/22
f 22/31/23 37/13/23 23/32/23
f 23/32/24 37/13/24 24/33/24
f 24/33/25 37/13/25 25/34/25
f 25/34/26 37/13/26 26/35/26
f 26/35/27 37/13/27 27/36/27
f 27/36/28 37/13/28 28/37/28
f 28/37/29 37/13/29 29/38/29
f 29/38/30 37/13/30 30/39/30
f 30/39/31 37/13/31 31/40/31
f 31/40/32 37/13/32 32/41/32
f 32/41/33 37/13/33 33/42/33
f 33/42/34 37/13/34 34/43/34
f 34/43/35 37/13/35 35/44/35
f 30/45/1 31/46/1 39/47/1
f 40/48/1 41/49/1 21/50/1
f 35/44/36 37/13/36 36/51/36
f 36/51/37 37/13/37 2/15/37
f 35/52/1 36/53/1 39/47/1
f 36/53/1 2/54/1 39/47/1
f 2/54/1 3/55/1 38/56/1
f 3/55/1 5/57/1 38/56/1
f 5/57/1 6/58/1 38/56/1
f 6/58/1 8/59/1 38/56/1
f 8/59/1 9/60/1 38/56/1
f 9/60/1 11/61/1 38/56/1
f 11/61/1 12/62/1 38/56/1
f 39/47/1 40/48/1 29/63/1
f 40/48/1 28/64/1 29/63/1
f 38/56/1 39/47/1 2/54/1
f 33/65/1 34/66/1 39/47/1
f 34/66/1 35/52/1 39/47/1
f 31/46/1 32/67/1 39/47/1
f 32/67/1 33/65/1 39/47/1
f 29/63/1 30/45/1 39/47/1
f 38/56/1 12/62/1 13/68/1
f 13/68/1 14/69/1 41/49/1
f 14/69/1 15/70/1 41/49/1
f 15/70/1 16/71/1 41/49/1
f 16/71/1 17/72/1 41/49/1
f 17/72/1 18/73/1 41/49/1
f 18/73/1 19/74/1 41/49/1
f 19/74/1 20/75/1 41/49/1
f 20/75/1 21/50/1 41/49/1
f 21/50/1 22/76/1 40/48/1
f 22/76/1 23/77/1 40/48/1
f 23/77/1 24/78/1 40/48/1
f 24/78/1 25/79/1 40/48/1
f 25/79/1 26/80/1 40/48/1
f 26/80/1 27/81/1 40/48/1
f 27/81/1 28/64/1 40/48/1
f 41/49/1 38/56/1 13/68/1
o Cone
v 0.000000 -3.130407 0.515561
v 0.100581 -3.130407 0.505655
v 0.197297 -3.130407 0.476317
v 0.286431 -3.130407 0.428674
v 0.364557 -3.130407 0.364557
v 0.428674 -3.130407 0.286431
v 0.476317 -3.130407 0.197297
v 0.505655 -3.130407 0.100581
v 0.515561 -3.130407 0.000000
v 0.505655 -3.130407 -0.100581
v 0.476317 -3.130407 -0.197297
v 0.428674 -3.130407 -0.286430
v 0.364557 -3.130407 -0.364557
v 0.286431 -3.130407 -0.428674
v 0.197297 -3.130407 -0.476317
v 0.100581 -3.130407 -0.505655
v -0.000000 -3.130407 -0.515561
v -0.100581 -3.130407 -0.505655
v -0.197297 -3.130407 -0.476317
v -0.286431 -3.130407 -0.428673
v -0.364557 -3.130407 -0.364557
v -0.428674 -3.130407 -0.286431
v -0.476317 -3.130407 -0.197297
v -0.505655 -3.130407 -0.100581
v -0.515561 -3.130407 0.000000
v -0.505655 -3.130407 0.100581
v -0.476317 -3.130407 0.197297
v -0.428674 -3.130407 0.286431
v -0.364557 -3.130407 0.364557
v -0.286431 -3.130407 0.428674
v -0.197297 -3.130407 0.476317
v -0.100581 -3.130407 0.505655
v 0.000000 -4.555826 -0.000000
vt 0.250000 0.490000
vt 0.250000 0.250000
vt 0.296822 0.485388
vt 0.341844 0.471731
vt 0.383337 0.449553
vt 0.419706 0.419706
vt 0.449553 0.383337
vt 0.471731 0.341844
vt 0.485388 0.296822
vt 0.490000 0.250000
vt 0.485388 0.203178
vt 0.471731 0.158156
vt 0.449553 0.116663
vt 0.419706 0.080294
vt 0.383337 0.050447
vt 0.341844 0.028269
vt 0.296822 0.014612
vt 0.250000 0.010000
vt 0.203178 0.014612
vt 0.158156 0.028269
vt 0.116663 0.050447
vt 0.080294 0.080294
vt 0.050447 0.116663
vt 0.028269 0.158156
vt 0.014612 0.203178
vt 0.010000 0.250000
vt 0.014612 0.296822
vt 0.028269 0.341844
vt 0.050447 0.383337
vt 0.080294 0.419706
vt 0.116663 0.449553
vt 0.158156 0.471731
vt 0.985388 0.296822
vt 0.796822 0.014612
vt 0.514612 0.203178
vt 0.203178 0.485388
vt 0.703178 0.485388
vt 0.750000 0.490000
vt 0.796822 0.485388
vt 0.841844 0.471731
vt 0.883337 0.449553
vt 0.919706 0.419706
vt 0.949553 0.383337
vt 0.971731 0.341844
vt 0.990000 0.250000
vt 0.985388 0.203178
vt 0.971731 0.158156
vt 0.949553 0.116663
vt 0.919706 0.080294
vt 0.883337 0.050447
vt 0.841844 0.028269
vt 0.750000 0.010000
vt 0.703178 0.014612
vt 0.658156 0.028269
vt 0.616663 0.050447
vt 0.580294 0.080294
vt 0.550447 0.116663
vt 0.528269 0.158156
vt 0.510000 0.250000
vt 0.514612 0.296822
vt 0.528269 0.341844
vt 0.550447 0.383337
vt 0.580294 0.419706
vt 0.616663 0.449553
vt 0.658156 0.471731
vn 0.0922 -0.3387 0.9364
vn 0.2731 -0.3387 0.9004
vn 0.4435 -0.3387 0.8298
vn 0.5969 -0.3387 0.7273
vn 0.7273 -0.3387 0.5969
vn 0.8298 -0.3387 0.4435
vn 0.9004 -0.3387 0.2731
vn 0.9364 -0.3387 0.0922
vn 0.9364 -0.3387 -0.0922
vn 0.9004 -0.3387 -0.2731
vn 0.8298 -0.3387 -0.4435
vn 0.7273 -0.3387 -0.5969
vn 0.5969 -0.3387 -0.7273
vn 0.4435 -0.3387 -0.8298
vn 0.2731 -0.3387 -0.9004
vn 0.0922 -0.3387 -0.9364
vn -0.0922 -0.3387 -0.9364
vn -0.2731 -0.3387 -0.9004
vn -0.4435 -0.3387 -0.8298
vn -0.5969 -0.3387 -0.7273
vn -0.7273 -0.3387 -0.5969
vn -0.8298 -0.3387 -0.4435
vn -0.9004 -0.3387 -0.2731
vn -0.9364 -0.3387 -0.0922
vn -0.9364 -0.3387 0.0922
vn -0.9004 -0.3387 0.2731
vn -0.8298 -0.3387 0.4435
vn -0.7273 -0.3387 0.5969
vn -0.5969 -0.3387 0.7273
vn -0.4435 -0.3387 0.8298
vn 0.0000 1.0000 -0.0000
vn -0.2731 -0.3387 0.9004
vn -0.0922 -0.3387 0.9364
s off
f 42/82/38 74/83/38 43/84/38
f 43/84/39 74/83/39 44/85/39
f 44/85/40 74/83/40 45/86/40
f 45/86/41 74/83/41 46/87/41
f 46/87/42 74/83/42 47/88/42
f 47/88/43 74/83/43 48/89/43
f 48/89/44 74/83/44 49/90/44
f 49/90/45 74/83/45 50/91/45
f 50/91/46 74/83/46 51/92/46
f 51/92/47 74/83/47 52/93/47
f 52/93/48 74/83/48 53/94/48
f 53/94/49 74/83/49 54/95/49
f 54/95/50 74/83/50 55/96/50
f 55/96/51 74/83/51 56/97/51
f 56/97/52 74/83/52 57/98/52
f 57/98/53 74/83/53 58/99/53
f 58/99/54 74/83/54 59/100/54
f 59/100/55 74/83/55 60/101/55
f 60/101/56 74/83/56 61/102/56
f 61/102/57 74/83/57 62/103/57
f 62/103/58 74/83/58 63/104/58
f 63/104/59 74/83/59 64/105/59
f 64/105/60 74/83/60 65/106/60
f 65/106/61 74/83/61 66/107/61
f 66/107/62 74/83/62 67/108/62
f 67/108/63 74/83/63 68/109/63
f 68/109/64 74/83/64 69/110/64
f 69/110/65 74/83/65 70/111/65
f 70/111/66 74/83/66 71/112/66
f 71/112/67 74/83/67 72/113/67
f 49/114/68 57/115/68 65/116/68
f 72/113/69 74/83/69 73/117/69
f 73/117/70 74/83/70 42/82/70
f 73/118/68 42/119/68 43/120/68
f 43/120/68 44/121/68 45/122/68
f 45/122/68 46/123/68 47/124/68
f 47/124/68 48/125/68 49/114/68
f 49/114/68 50/126/68 51/127/68
f 51/127/68 52/128/68 53/129/68
f 53/129/68 54/130/68 55/131/68
f 55/131/68 56/132/68 57/115/68
f 57/115/68 58/133/68 59/134/68
f 59/134/68 60/135/68 61/136/68
f 61/136/68 62/137/68 63/138/68
f 63/138/68 64/139/68 65/116/68
f 65/116/68 66/140/68 67/141/68
f 67/141/68 68/142/68 65/116/68
f 68/142/68 69/143/68 65/116/68
f 69/143/68 70/144/68 71/145/68
f 71/145/68 72/146/68 69/143/68
f 72/146/68 73/118/68 69/143/68
f 73/118/68 43/120/68 49/114/68
f 43/120/68 45/122/68 49/114/68
f 45/122/68 47/124/68 49/114/68
f 49/114/68 51/127/68 53/129/68
f 53/129/68 55/131/68 49/114/68
f 55/131/68 57/115/68 49/114/68
f 57/115/68 59/134/68 65/116/68
f 59/134/68 61/136/68 65/116/68
f 61/136/68 63/138/68 65/116/68
f 65/116/68 69/143/68 73/118/68
f 73/118/68 49/114/68 65/116/68
