# Blender v3.2.2 OBJ File: 'gizmo_scale_axis.blend'
# www.blender.org
o Cube
v 0.136654 -0.481391 -0.136654
v -0.335380 -3.769405 0.335380
v -0.335380 -3.098644 0.335380
v 0.136654 -0.481391 0.136654
v -0.335380 -3.769405 -0.335380
v -0.335380 -3.098644 -0.335380
v -0.136654 -0.481391 -0.136654
v 0.335380 -3.769405 0.335380
v 0.335380 -3.098644 0.335380
v -0.136654 -0.481391 0.136654
v 0.335380 -3.769405 -0.335380
v 0.335380 -3.098644 -0.335380
v 0.136654 -3.098644 0.136654
v -0.136654 -3.098644 0.136654
v -0.136654 -3.098644 -0.136654
v 0.136654 -3.098644 -0.136654
vt 0.875000 0.500000
vt 0.625000 0.750000
vt 0.625000 0.500000
vt 0.380789 1.000000
vt 0.380789 0.750000
vt 0.625000 0.000000
vt 0.380789 0.250000
vt 0.380789 0.000000
vt 0.380789 0.500000
vt 0.625000 0.250000
vt 0.875000 0.750000
vt 0.625000 1.000000
vt 0.625000 0.000000
vt 0.375000 0.250000
vt 0.375000 0.000000
vt 0.625000 0.250000
vt 0.375000 0.500000
vt 0.625000 0.500000
vt 0.375000 0.750000
vt 0.625000 0.750000
vt 0.375000 1.000000
vt 0.125000 0.750000
vt 0.125000 0.500000
vt 0.875000 0.750000
vt 0.699067 0.675932
vt 0.800933 0.675932
vt 0.800932 0.574068
vt 0.699067 0.574067
vt 0.625000 1.000000
vt 0.875000 0.500000
vn 0.0000 1.0000 0.0000
vn 0.0000 0.0000 1.0000
vn -1.0000 0.0000 0.0000
vn 1.0000 0.0000 0.0000
vn 0.0000 0.0000 -1.0000
vn 0.0000 -1.0000 0.0000
s off
f 7/1/1 4/2/1 1/3/1
f 4/2/2 14/4/2 13/5/2
f 10/6/3 15/7/3 14/8/3
f 1/3/4 13/5/4 16/9/4
f 7/10/5 16/9/5 15/7/5
f 7/1/1 10/11/1 4/2/1
f 4/2/2 10/12/2 14/4/2
f 10/6/3 7/10/3 15/7/3
f 1/3/4 4/2/4 13/5/4
f 7/10/5 1/3/5 16/9/5
f 3/13/3 5/14/3 2/15/3
f 6/16/5 11/17/5 5/14/5
f 12/18/4 8/19/4 11/17/4
f 9/20/2 2/21/2 8/19/2
f 11/17/6 2/22/6 5/23/6
f 3/24/1 13/25/1 14/26/1
f 12/18/1 15/27/1 16/28/1
f 3/13/3 6/16/3 5/14/3
f 6/16/5 12/18/5 11/17/5
f 12/18/4 9/20/4 8/19/4
f 9/20/2 3/29/2 2/21/2
f 11/17/6 8/19/6 2/22/6
f 15/27/1 6/30/1 3/24/1
f 3/24/1 9/20/1 13/25/1
f 14/26/1 15/27/1 3/24/1
f 13/25/1 9/20/1 12/18/1
f 12/18/1 6/30/1 15/27/1
f 16/28/1 13/25/1 12/18/1
o Cube.001
v -0.335380 -3.769405 0.335380
v -0.335380 -3.098644 0.335380
v -0.335380 -3.769405 -0.335380
v -0.335380 -3.098644 -0.335380
v 0.335380 -3.769405 0.335380
v 0.335380 -3.098644 0.335380
v 0.335380 -3.769405 -0.335380
v 0.335380 -3.098644 -0.335380
vt 0.625000 0.000000
vt 0.375000 0.250000
vt 0.375000 0.000000
vt 0.625000 0.250000
vt 0.375000 0.500000
vt 0.625000 0.500000
vt 0.375000 0.750000
vt 0.625000 0.750000
vt 0.375000 1.000000
vt 0.125000 0.750000
vt 0.125000 0.500000
vt 0.875000 0.500000
vt 0.625000 1.000000
vt 0.875000 0.750000
vn -1.0000 0.0000 0.0000
vn 0.0000 0.0000 -1.0000
vn 1.0000 0.0000 0.0000
vn 0.0000 0.0000 1.0000
vn 0.0000 -1.0000 0.0000
vn 0.0000 1.0000 0.0000
s off
f 18/31/7 19/32/7 17/33/7
f 20/34/8 23/35/8 19/32/8
f 24/36/9 21/37/9 23/35/9
f 22/38/10 17/39/10 21/37/10
f 23/35/11 17/40/11 19/41/11
f 20/42/12 22/38/12 24/36/12
f 18/31/7 20/34/7 19/32/7
f 20/34/8 24/36/8 23/35/8
f 24/36/9 22/38/9 21/37/9
f 22/38/10 18/43/10 17/39/10
f 23/35/11 21/37/11 17/40/11
f 20/42/12 18/44/12 22/38/12
